<svg xmlns="http://www.w3.org/2000/svg" width="1400" height="820" viewBox="0 0 1400 820">
  <defs>
    <linearGradient id="bg" x1="0" y1="0" x2="1" y2="1">
      <stop offset="0" stop-color="#eff6ff"/>
      <stop offset="0.56" stop-color="#ffffff"/>
      <stop offset="1" stop-color="#eef6ff"/>
    </linearGradient>
    <linearGradient id="pack" x1="0" y1="0" x2="1" y2="1">
      <stop offset="0" stop-color="#2563eb"/>
      <stop offset="1" stop-color="#38bdf8"/>
    </linearGradient>
    <linearGradient id="side" x1="0" y1="0" x2="1" y2="1">
      <stop offset="0" stop-color="#ffffff" stop-opacity="0.34"/>
      <stop offset="1" stop-color="#0f172a" stop-opacity="0.18"/>
    </linearGradient>
    <filter id="shadow" x="-20%" y="-20%" width="140%" height="150%">
      <feDropShadow dx="0" dy="34" stdDeviation="34" flood-color="#0f172a" flood-opacity="0.2"/>
    </filter>
  </defs>
  <rect width="1400" height="820" rx="54" fill="url(#bg)"/>
  <circle cx="1200" cy="120" r="220" fill="#38bdf8" opacity="0.16"/>
  <circle cx="160" cy="710" r="240" fill="#2563eb" opacity="0.12"/>
  <g filter="url(#shadow)">
    <path d="M362 142h540l136 80v458H362z" fill="#ffffff"/>
    <path d="M902 142l136 80H902z" fill="#dbeafe"/>
    <rect x="402" y="188" width="560" height="448" rx="34" fill="url(#pack)"/>
    <path d="M962 188l44 26v422h-44z" fill="url(#side)"/>
    <rect x="470" y="236" width="280" height="54" rx="27" fill="#ffffff" opacity="0.18"/>
    <text x="610" y="272" text-anchor="middle" font-family="Arial, sans-serif" font-size="22" font-weight="800" letter-spacing="2" fill="#ffffff">WINDOWS LICENSE</text>
    <circle cx="610" cy="408" r="112" fill="#ffffff" opacity="0.16"/>
    <rect x="512" y="342" width="196" height="132" rx="28" fill="#ffffff" opacity="0.95"/>
    <text x="610" y="429" text-anchor="middle" font-family="Arial, sans-serif" font-size="58" font-weight="900" fill="#2563eb">WS</text>
    <path d="M535 505h150" stroke="#ffffff" stroke-width="18" stroke-linecap="round" opacity="0.42"/>
    <path d="M565 544h92" stroke="#ffffff" stroke-width="18" stroke-linecap="round" opacity="0.3"/>
    <rect x="466" y="578" width="288" height="54" rx="27" fill="#ffffff" opacity="0.95"/>
    <text x="610" y="613" text-anchor="middle" font-family="Arial, sans-serif" font-size="22" font-weight="900" fill="#0f172a">Instant Delivery</text>
    <rect x="792" y="238" width="112" height="42" rx="21" fill="#ffffff" opacity="0.94"/>
    <text x="848" y="267" text-anchor="middle" font-family="Arial, sans-serif" font-size="21" font-weight="900" fill="#2563eb">$9.85</text>
  </g>
  <g>
    <text x="610" y="280" text-anchor="middle" font-family="Arial, sans-serif" font-size="52" font-weight="800" fill="#ffffff">Windows Server 2022</text>
    <text x="610" y="348" text-anchor="middle" font-family="Arial, sans-serif" font-size="52" font-weight="800" fill="#ffffff">Standard</text>
    <text x="610" y="728" text-anchor="middle" font-family="Arial, sans-serif" font-size="26" font-weight="800" fill="#0f172a">Windows Product Card</text>
  </g>
</svg>
